<?xml version="1.0" standalone="no"?>
<!DOCTYPE svg PUBLIC "-//W3C//DTD SVG 20010904//EN"
 "http://www.w3.org/TR/2001/REC-SVG-20010904/DTD/svg10.dtd">
<svg version="1.0" xmlns="http://www.w3.org/2000/svg"
 width="700.000000pt" height="700.000000pt" viewBox="0 0 700.000000 700.000000"
 preserveAspectRatio="xMidYMid meet">
<metadata>
Created by potrace 1.14, written by Peter Selinger 2001-2017
</metadata>
<g transform="translate(0.000000,700.000000) scale(0.100000,-0.100000)"
fill="#000000" stroke="none">
<path d="M3365 6841 c-88 -15 -175 -40 -254 -75 -128 -56 -2197 -1258 -2282
-1324 -184 -147 -314 -376 -349 -617 -8 -57 -10 -444 -8 -1375 l3 -1295 22
-77 c66 -230 191 -419 363 -545 56 -41 2092 -1220 2210 -1280 123 -62 292
-103 429 -103 97 0 238 26 334 60 113 41 2227 1260 2339 1349 176 140 303 357
343 588 22 128 22 2578 0 2706 -40 231 -167 448 -343 588 -99 78 -2222 1305
-2325 1344 -39 14 -99 33 -132 41 -72 17 -280 26 -350 15z m570 -2491 c149
-37 282 -136 338 -250 74 -153 73 -361 -3 -516 -38 -78 -129 -165 -213 -205
-106 -49 -176 -59 -434 -59 l-231 0 -4 -232 c-3 -219 -4 -235 -26 -275 -12
-24 -41 -55 -64 -70 -37 -25 -50 -28 -128 -28 -77 0 -91 3 -127 27 -25 16 -49
44 -62 71 -21 44 -21 46 -19 745 3 690 3 701 24 728 28 38 65 64 105 74 54 14
785 5 844 -10z"/>
<path d="M3390 3839 l0 -200 203 3 c194 3 204 4 246 28 60 34 86 85 86 170 0
92 -25 137 -95 173 -53 27 -56 27 -247 27 l-193 0 0 -201z"/>
</g>
</svg>
