<svg width="23" height="23" viewBox="0 0 23 23" fill="none" xmlns="http://www.w3.org/2000/svg">
<path d="M0.43934 21.6525C-0.146447 21.0668 -0.146447 20.117 0.43934 19.5312L19.5312 0.43934C20.117 -0.146446 21.0668 -0.146447 21.6525 0.43934C22.2383 1.02513 22.2383 1.97487 21.6525 2.56066L2.56066 21.6525C1.97487 22.2383 1.02513 22.2383 0.43934 21.6525Z" fill="black"/>
<path d="M22.3598 21.6525C21.774 22.2383 20.8242 22.2383 20.2384 21.6525L1.14655 2.56066C0.560759 1.97488 0.560759 1.02513 1.14655 0.439344C1.73233 -0.146443 2.68208 -0.146443 3.26787 0.439344L22.3597 19.5312C22.9455 20.117 22.9455 21.0668 22.3598 21.6525Z" fill="black"/>
</svg>
