<svg width="20" height="20" viewBox="0 0 20 20" fill="none" xmlns="http://www.w3.org/2000/svg">
<path d="M18.3304 16.9739C18.5233 17.3932 18.6751 17.8246 18.785 18.2632C18.8296 18.4412 18.7852 18.5957 18.6586 18.7325C18.5198 18.8824 18.2829 19 18 19H1.99999C1.71706 19 1.4802 18.8824 1.3414 18.7325C1.21474 18.5957 1.17036 18.4412 1.21498 18.2632C1.32487 17.8246 1.47664 17.3932 1.6696 16.9739C2.11304 16.0104 2.76634 15.1277 3.59789 14.3793C4.42964 13.6308 5.42262 13.0321 6.52246 12.6221C7.62236 12.2121 8.8043 12 9.99999 12C11.1957 12 12.3776 12.2121 13.4775 12.6221C14.5774 13.0321 15.5703 13.6308 16.4021 14.3793C17.2336 15.1277 17.8869 16.0104 18.3304 16.9739ZM14 5C14 7.20914 12.2091 9 9.99999 9C7.79085 9 5.99999 7.20914 5.99999 5C5.99999 2.79086 7.79085 1 9.99999 1C12.2091 1 14 2.79086 14 5Z" stroke="black" stroke-width="2"/>
</svg>
